<?xml version="1.0" encoding="UTF-8" standalone="no"?>
<!DOCTYPE svg PUBLIC "-//W3C//DTD SVG 1.1//EN"
 "http://www.w3.org/Graphics/SVG/1.1/DTD/svg11.dtd">
<!-- Generated by graphviz version 2.40.1 (0)
 -->
<!-- Title: snakemake_dag Pages: 1 -->
<svg width="714pt" height="2290pt"
 viewBox="0.00 0.00 713.73 2290.00" xmlns="http://www.w3.org/2000/svg" xmlns:xlink="http://www.w3.org/1999/xlink">
<g id="graph0" class="graph" transform="scale(1 1) rotate(0) translate(4 2286)">
<title>snakemake_dag</title>
<polygon fill="#ffffff" stroke="transparent" points="-4,4 -4,-2286 709.7295,-2286 709.7295,4 -4,4"/>
<!-- 0 -->
<g id="node1" class="node">
<title>0</title>
<text text-anchor="start" x="209.2295" y="-183.6" font-family="sans" font-weight="bold" font-size="18.00" fill="#000000">PHILHARMONIC</text>
<text text-anchor="start" x="143.7295" y="-159.8" font-family="sans" font-size="10.00" fill="#000000"> </text>
<text text-anchor="start" x="147.7295" y="-159.8" font-family="sans" font-weight="bold" font-size="14.00" fill="#000000">↪ input</text>
<text text-anchor="start" x="208.7295" y="-159.8" font-family="sans" font-size="10.00" fill="#000000"> </text>
<text text-anchor="start" x="143.7295" y="-140" font-family="monospace" font-size="10.00" fill="#000000">results/philharmonic_GO_map.csv</text>
<text text-anchor="start" x="143.7295" y="-122" font-family="monospace" font-size="10.00" fill="#000000">results/philharmonic_cluster_graph.tsv</text>
<text text-anchor="start" x="143.7295" y="-104" font-family="monospace" font-size="10.00" fill="#000000">results/philharmonic_cluster_graph_functions.tsv</text>
<text text-anchor="start" x="143.7295" y="-86" font-family="monospace" font-size="10.00" fill="#000000">results/philharmonic_clusters.json</text>
<text text-anchor="start" x="143.7295" y="-68" font-family="monospace" font-size="10.00" fill="#000000">results/philharmonic_human_readable.txt</text>
<text text-anchor="start" x="143.7295" y="-50" font-family="monospace" font-size="10.00" fill="#000000">results/philharmonic_network.positive.tsv</text>
<text text-anchor="start" x="351.7295" y="-29.8" font-family="sans" font-size="10.00" fill="#000000"> </text>
<text text-anchor="start" x="355.7295" y="-29.8" font-family="sans" font-weight="bold" font-size="14.00" fill="#000000">output →</text>
<text text-anchor="start" x="428.7295" y="-29.8" font-family="sans" font-size="10.00" fill="#000000"> </text>
<text text-anchor="start" x="143.7295" y="-10" font-family="monospace" font-size="10.00" fill="#000000">results/philharmonic.zip</text>
<polygon fill="#d9a757" stroke="#d9a757" points="137.7295,-174 137.7295,-174 439.7295,-174 439.7295,-174 137.7295,-174"/>
<polygon fill="#d9a757" stroke="#d9a757" points="137.7295,-44 137.7295,-44 439.7295,-44 439.7295,-44 137.7295,-44"/>
<polygon fill="none" stroke="#d9a757" stroke-width="2" points="137.2295,-1 137.2295,-203 438.2295,-203 438.2295,-1 137.2295,-1"/>
</g>
<!-- 1 -->
<g id="node2" class="node">
<title>1</title>
<text text-anchor="start" x="351.7295" y="-1227.6" font-family="sans" font-weight="bold" font-size="18.00" fill="#000000">predict_network</text>
<text text-anchor="start" x="309.7295" y="-1203.8" font-family="sans" font-size="10.00" fill="#000000"> </text>
<text text-anchor="start" x="313.7295" y="-1203.8" font-family="sans" font-weight="bold" font-size="14.00" fill="#000000">↪ input</text>
<text text-anchor="start" x="374.7295" y="-1203.8" font-family="sans" font-size="10.00" fill="#000000"> </text>
<text text-anchor="start" x="309.7295" y="-1184" font-family="monospace" font-size="10.00" fill="#000000">results/philharmonic_candidates.tsv</text>
<text text-anchor="start" x="309.7295" y="-1166" font-family="monospace" font-size="10.00" fill="#000000">sample_sequences.fasta</text>
<text text-anchor="start" x="475.7295" y="-1145.8" font-family="sans" font-size="10.00" fill="#000000"> </text>
<text text-anchor="start" x="479.7295" y="-1145.8" font-family="sans" font-weight="bold" font-size="14.00" fill="#000000">output →</text>
<text text-anchor="start" x="552.7295" y="-1145.8" font-family="sans" font-size="10.00" fill="#000000"> </text>
<text text-anchor="start" x="309.7295" y="-1126" font-family="monospace" font-size="10.00" fill="#000000">results/philharmonic_network.positive.tsv</text>
<polygon fill="#57d96b" stroke="#57d96b" points="303.7295,-1218 303.7295,-1218 563.7295,-1218 563.7295,-1218 303.7295,-1218"/>
<polygon fill="#57d96b" stroke="#57d96b" points="303.7295,-1160 303.7295,-1160 563.7295,-1160 563.7295,-1160 303.7295,-1160"/>
<polygon fill="none" stroke="#57d96b" stroke-width="2" points="303.2295,-1117 303.2295,-1247 562.2295,-1247 562.2295,-1117 303.2295,-1117"/>
</g>
<!-- 1&#45;&gt;0 -->
<g id="edge3" class="edge">
<title>1&#45;&gt;0</title>
<path fill="none" stroke="#c0c0c0" stroke-width="2" d="M333.8275,-1115.8573C322.9612,-1105.0131 313.1625,-1093.0152 305.7295,-1080 206.028,-905.4217 218.3213,-826.7316 259.7295,-630 276.5343,-550.1602 294.5095,-533.5443 333.7295,-462 342.9732,-445.1379 352.1571,-444.4045 357.7295,-426 381.685,-346.8804 376.9549,-320.4 357.7295,-240 355.6419,-231.2697 352.9067,-222.4673 349.7286,-213.7605"/>
<polygon fill="#c0c0c0" stroke="#c0c0c0" stroke-width="2" points="352.9697,-212.4374 346.1157,-204.3582 346.4355,-214.9482 352.9697,-212.4374"/>
</g>
<!-- 9 -->
<g id="node10" class="node">
<title>9</title>
<text text-anchor="start" x="403.2295" y="-741.6" font-family="sans" font-weight="bold" font-size="18.00" fill="#000000">reconnect_recipe</text>
<text text-anchor="start" x="347.7295" y="-717.8" font-family="sans" font-size="10.00" fill="#000000"> </text>
<text text-anchor="start" x="351.7295" y="-717.8" font-family="sans" font-weight="bold" font-size="14.00" fill="#000000">↪ input</text>
<text text-anchor="start" x="412.7295" y="-717.8" font-family="sans" font-size="10.00" fill="#000000"> </text>
<text text-anchor="start" x="347.7295" y="-698" font-family="monospace" font-size="10.00" fill="#000000">results/philharmonic_clusters.disconnected.json</text>
<text text-anchor="start" x="347.7295" y="-680" font-family="monospace" font-size="10.00" fill="#000000">results/philharmonic_network.positive.tsv</text>
<text text-anchor="start" x="549.7295" y="-659.8" font-family="sans" font-size="10.00" fill="#000000"> </text>
<text text-anchor="start" x="553.7295" y="-659.8" font-family="sans" font-weight="bold" font-size="14.00" fill="#000000">output →</text>
<text text-anchor="start" x="626.7295" y="-659.8" font-family="sans" font-size="10.00" fill="#000000"> </text>
<text text-anchor="start" x="347.7295" y="-640" font-family="monospace" font-size="10.00" fill="#000000">results/philharmonic_clusters.recipe.json</text>
<polygon fill="#57cfd9" stroke="#57cfd9" points="341.7295,-732 341.7295,-732 637.7295,-732 637.7295,-732 341.7295,-732"/>
<polygon fill="#57cfd9" stroke="#57cfd9" points="341.7295,-674 341.7295,-674 637.7295,-674 637.7295,-674 341.7295,-674"/>
<polygon fill="none" stroke="#57cfd9" stroke-width="2" points="341.2295,-631 341.2295,-761 636.2295,-761 636.2295,-631 341.2295,-631"/>
</g>
<!-- 1&#45;&gt;9 -->
<g id="edge17" class="edge">
<title>1&#45;&gt;9</title>
<path fill="none" stroke="#c0c0c0" stroke-width="2" d="M384.0374,-1115.9459C377.7356,-1104.4612 372.2559,-1092.2551 368.7295,-1080 334.0713,-959.554 316.123,-911.7585 368.7295,-798 373.3426,-788.0246 379.4654,-778.6671 386.5101,-769.9794"/>
<polygon fill="#c0c0c0" stroke="#c0c0c0" stroke-width="2" points="389.3453,-772.0508 393.222,-762.1907 384.0426,-767.4812 389.3453,-772.0508"/>
</g>
<!-- 10 -->
<g id="node11" class="node">
<title>10</title>
<text text-anchor="start" x="446.7295" y="-909.6" font-family="sans" font-weight="bold" font-size="18.00" fill="#000000">cluster_network</text>
<text text-anchor="start" x="385.7295" y="-885.8" font-family="sans" font-size="10.00" fill="#000000"> </text>
<text text-anchor="start" x="389.7295" y="-885.8" font-family="sans" font-weight="bold" font-size="14.00" fill="#000000">↪ input</text>
<text text-anchor="start" x="450.7295" y="-885.8" font-family="sans" font-size="10.00" fill="#000000"> </text>
<text text-anchor="start" x="385.7295" y="-866" font-family="monospace" font-size="10.00" fill="#000000">results/philharmonic_distances.DSD1</text>
<text text-anchor="start" x="385.7295" y="-848" font-family="monospace" font-size="10.00" fill="#000000">results/philharmonic_network.positive.tsv</text>
<text text-anchor="start" x="587.7295" y="-827.8" font-family="sans" font-size="10.00" fill="#000000"> </text>
<text text-anchor="start" x="591.7295" y="-827.8" font-family="sans" font-weight="bold" font-size="14.00" fill="#000000">output →</text>
<text text-anchor="start" x="664.7295" y="-827.8" font-family="sans" font-size="10.00" fill="#000000"> </text>
<text text-anchor="start" x="385.7295" y="-808" font-family="monospace" font-size="10.00" fill="#000000">results/philharmonic_clusters.disconnected.json</text>
<polygon fill="#57a7d9" stroke="#57a7d9" points="379.7295,-900 379.7295,-900 675.7295,-900 675.7295,-900 379.7295,-900"/>
<polygon fill="#57a7d9" stroke="#57a7d9" points="379.7295,-842 379.7295,-842 675.7295,-842 675.7295,-842 379.7295,-842"/>
<polygon fill="none" stroke="#57a7d9" stroke-width="2" points="379.2295,-799 379.2295,-929 674.2295,-929 674.2295,-799 379.2295,-799"/>
</g>
<!-- 1&#45;&gt;10 -->
<g id="edge18" class="edge">
<title>1&#45;&gt;10</title>
<path fill="none" stroke="#c0c0c0" stroke-width="2" d="M563.3402,-1148.2148C596.8477,-1133.0042 628.9738,-1111.1768 648.7295,-1080 675.8491,-1037.2023 670.1831,-1011.9005 648.7295,-966 644.0755,-956.0425 637.9183,-946.7152 630.8382,-938.0629"/>
<polygon fill="#c0c0c0" stroke="#c0c0c0" stroke-width="2" points="633.2967,-935.5564 624.0932,-930.308 628.015,-940.1503 633.2967,-935.5564"/>
</g>
<!-- 11 -->
<g id="node12" class="node">
<title>11</title>
<text text-anchor="start" x="413.2295" y="-1059.6" font-family="sans" font-weight="bold" font-size="18.00" fill="#000000">compute_distances</text>
<text text-anchor="start" x="385.7295" y="-1035.8" font-family="sans" font-size="10.00" fill="#000000"> </text>
<text text-anchor="start" x="389.7295" y="-1035.8" font-family="sans" font-weight="bold" font-size="14.00" fill="#000000">↪ input</text>
<text text-anchor="start" x="450.7295" y="-1035.8" font-family="sans" font-size="10.00" fill="#000000"> </text>
<text text-anchor="start" x="385.7295" y="-1016" font-family="monospace" font-size="10.00" fill="#000000">results/philharmonic_network.positive.tsv</text>
<text text-anchor="start" x="551.7295" y="-995.8" font-family="sans" font-size="10.00" fill="#000000"> </text>
<text text-anchor="start" x="555.7295" y="-995.8" font-family="sans" font-weight="bold" font-size="14.00" fill="#000000">output →</text>
<text text-anchor="start" x="628.7295" y="-995.8" font-family="sans" font-size="10.00" fill="#000000"> </text>
<text text-anchor="start" x="385.7295" y="-976" font-family="monospace" font-size="10.00" fill="#000000">results/philharmonic_distances.DSD1</text>
<polygon fill="#57d993" stroke="#57d993" points="379.7295,-1050 379.7295,-1050 639.7295,-1050 639.7295,-1050 379.7295,-1050"/>
<polygon fill="#57d993" stroke="#57d993" points="379.7295,-1010 379.7295,-1010 639.7295,-1010 639.7295,-1010 379.7295,-1010"/>
<polygon fill="none" stroke="#57d993" stroke-width="2" points="379.2295,-967 379.2295,-1079 638.2295,-1079 638.2295,-967 379.2295,-967"/>
</g>
<!-- 1&#45;&gt;11 -->
<g id="edge20" class="edge">
<title>1&#45;&gt;11</title>
<path fill="none" stroke="#c0c0c0" stroke-width="2" d="M464.3001,-1115.951C468.5075,-1107.1488 472.8231,-1098.12 477.0326,-1089.3133"/>
<polygon fill="#c0c0c0" stroke="#c0c0c0" stroke-width="2" points="480.2171,-1090.7668 481.3719,-1080.235 473.9015,-1087.7479 480.2171,-1090.7668"/>
</g>
<!-- 12 -->
<g id="node13" class="node">
<title>12</title>
<text text-anchor="start" x="129.2295" y="-405.6" font-family="sans" font-weight="bold" font-size="18.00" fill="#000000">cluster_graph</text>
<text text-anchor="start" x="53.7295" y="-381.8" font-family="sans" font-size="10.00" fill="#000000"> </text>
<text text-anchor="start" x="57.7295" y="-381.8" font-family="sans" font-weight="bold" font-size="14.00" fill="#000000">↪ input</text>
<text text-anchor="start" x="118.7295" y="-381.8" font-family="sans" font-size="10.00" fill="#000000"> </text>
<text text-anchor="start" x="53.7295" y="-362" font-family="monospace" font-size="10.00" fill="#000000">results/goslim_generic.obo</text>
<text text-anchor="start" x="53.7295" y="-344" font-family="monospace" font-size="10.00" fill="#000000">results/philharmonic_GO_map.csv</text>
<text text-anchor="start" x="53.7295" y="-326" font-family="monospace" font-size="10.00" fill="#000000">results/philharmonic_clusters.functional.json</text>
<text text-anchor="start" x="53.7295" y="-308" font-family="monospace" font-size="10.00" fill="#000000">results/philharmonic_network.positive.tsv</text>
<text text-anchor="start" x="261.7295" y="-287.8" font-family="sans" font-size="10.00" fill="#000000"> </text>
<text text-anchor="start" x="265.7295" y="-287.8" font-family="sans" font-weight="bold" font-size="14.00" fill="#000000">output →</text>
<text text-anchor="start" x="338.7295" y="-287.8" font-family="sans" font-size="10.00" fill="#000000"> </text>
<text text-anchor="start" x="53.7295" y="-268" font-family="monospace" font-size="10.00" fill="#000000">results/philharmonic_cluster_graph.tsv</text>
<text text-anchor="start" x="53.7295" y="-250" font-family="monospace" font-size="10.00" fill="#000000">results/philharmonic_cluster_graph_functions.tsv</text>
<polygon fill="#93d957" stroke="#93d957" points="47.7295,-396 47.7295,-396 349.7295,-396 349.7295,-396 47.7295,-396"/>
<polygon fill="#93d957" stroke="#93d957" points="47.7295,-302 47.7295,-302 349.7295,-302 349.7295,-302 47.7295,-302"/>
<polygon fill="none" stroke="#93d957" stroke-width="2" points="47.2295,-241 47.2295,-425 348.2295,-425 348.2295,-241 47.2295,-241"/>
</g>
<!-- 1&#45;&gt;12 -->
<g id="edge23" class="edge">
<title>1&#45;&gt;12</title>
<path fill="none" stroke="#c0c0c0" stroke-width="2" d="M359.7154,-1115.996C350.7139,-1104.8092 342.6241,-1092.6796 336.7295,-1080 295.9895,-992.3661 311.7295,-960.6409 311.7295,-864 311.7295,-864 311.7295,-864 311.7295,-696 311.7295,-604.9672 278.6924,-506.7486 248.1879,-435.4622"/>
<polygon fill="#c0c0c0" stroke="#c0c0c0" stroke-width="2" points="251.2862,-433.8094 244.0977,-426.0263 244.8637,-436.5934 251.2862,-433.8094"/>
</g>
<!-- 2 -->
<g id="node3" class="node">
<title>2</title>
<text text-anchor="start" x="323.2295" y="-1449.6" font-family="sans" font-weight="bold" font-size="18.00" fill="#000000">generate_candidates</text>
<text text-anchor="start" x="313.7295" y="-1425.8" font-family="sans" font-size="10.00" fill="#000000"> </text>
<text text-anchor="start" x="317.7295" y="-1425.8" font-family="sans" font-weight="bold" font-size="14.00" fill="#000000">↪ input</text>
<text text-anchor="start" x="378.7295" y="-1425.8" font-family="sans" font-size="10.00" fill="#000000"> </text>
<text text-anchor="start" x="313.7295" y="-1406" font-family="monospace" font-size="10.00" fill="#000000">assets/go_filter.txt</text>
<text text-anchor="start" x="313.7295" y="-1388" font-family="monospace" font-size="10.00" fill="#000000">results/go.obo</text>
<text text-anchor="start" x="313.7295" y="-1370" font-family="monospace" font-size="10.00" fill="#000000">results/philharmonic_GO_map.csv</text>
<text text-anchor="start" x="313.7295" y="-1352" font-family="monospace" font-size="10.00" fill="#000000">sample_sequences.fasta</text>
<text text-anchor="start" x="461.7295" y="-1331.8" font-family="sans" font-size="10.00" fill="#000000"> </text>
<text text-anchor="start" x="465.7295" y="-1331.8" font-family="sans" font-weight="bold" font-size="14.00" fill="#000000">output →</text>
<text text-anchor="start" x="538.7295" y="-1331.8" font-family="sans" font-size="10.00" fill="#000000"> </text>
<text text-anchor="start" x="313.7295" y="-1312" font-family="monospace" font-size="10.00" fill="#000000">results/philharmonic_candidates.tsv</text>
<text text-anchor="start" x="313.7295" y="-1294" font-family="monospace" font-size="10.00" fill="#000000">results/philharmonic_kept_proteins.txt</text>
<polygon fill="#6bd957" stroke="#6bd957" points="307.7295,-1440 307.7295,-1440 549.7295,-1440 549.7295,-1440 307.7295,-1440"/>
<polygon fill="#6bd957" stroke="#6bd957" points="307.7295,-1346 307.7295,-1346 549.7295,-1346 549.7295,-1346 307.7295,-1346"/>
<polygon fill="none" stroke="#6bd957" stroke-width="2" points="307.2295,-1285 307.2295,-1469 548.2295,-1469 548.2295,-1285 307.2295,-1285"/>
</g>
<!-- 2&#45;&gt;1 -->
<g id="edge5" class="edge">
<title>2&#45;&gt;1</title>
<path fill="none" stroke="#c0c0c0" stroke-width="2" d="M430.1197,-1283.7834C430.3393,-1275.2208 430.5599,-1266.614 430.775,-1258.2279"/>
<polygon fill="#c0c0c0" stroke="#c0c0c0" stroke-width="2" points="434.2764,-1258.2124 431.034,-1248.126 427.2787,-1258.0329 434.2764,-1258.2124"/>
</g>
<!-- 3 -->
<g id="node4" class="node">
<title>3</title>
<text text-anchor="start" x="164.7295" y="-2261.6" font-family="sans" font-weight="bold" font-size="18.00" fill="#000000">download_required_files</text>
<text text-anchor="start" x="164.7295" y="-2240" font-family="sans" font-size="10.00" fill="#000000"> &#160;</text>
<text text-anchor="start" x="327.7295" y="-2219.8" font-family="sans" font-size="10.00" fill="#000000"> </text>
<text text-anchor="start" x="331.7295" y="-2219.8" font-family="sans" font-weight="bold" font-size="14.00" fill="#000000">output →</text>
<text text-anchor="start" x="404.7295" y="-2219.8" font-family="sans" font-size="10.00" fill="#000000"> </text>
<text text-anchor="start" x="164.7295" y="-2200" font-family="monospace" font-size="10.00" fill="#000000">results/Pfam&#45;A.hmm.gz</text>
<text text-anchor="start" x="164.7295" y="-2182" font-family="monospace" font-size="10.00" fill="#000000">results/go.obo</text>
<text text-anchor="start" x="164.7295" y="-2164" font-family="monospace" font-size="10.00" fill="#000000">results/goslim_generic.obo</text>
<text text-anchor="start" x="164.7295" y="-2146" font-family="monospace" font-size="10.00" fill="#000000">results/pfam_gobp_most_specific.txt</text>
<polygon fill="#577fd9" stroke="#577fd9" points="158.7295,-2252 158.7295,-2252 415.7295,-2252 415.7295,-2252 158.7295,-2252"/>
<polygon fill="#577fd9" stroke="#577fd9" points="158.7295,-2234 158.7295,-2234 415.7295,-2234 415.7295,-2234 158.7295,-2234"/>
<polygon fill="none" stroke="#577fd9" stroke-width="2" points="158.7295,-2137 158.7295,-2281 414.7295,-2281 414.7295,-2137 158.7295,-2137"/>
</g>
<!-- 3&#45;&gt;2 -->
<g id="edge6" class="edge">
<title>3&#45;&gt;2</title>
<path fill="none" stroke="#c0c0c0" stroke-width="2" d="M363.0738,-2135.9636C371.5705,-2124.6709 379.1542,-2112.5598 384.7295,-2100 475.5287,-1895.4525 460.8592,-1625.8627 443.4836,-1480.5357"/>
<polygon fill="#c0c0c0" stroke="#c0c0c0" stroke-width="2" points="446.9186,-1479.7901 442.2294,-1470.2895 439.9705,-1480.6407 446.9186,-1479.7901"/>
</g>
<!-- 4 -->
<g id="node5" class="node">
<title>4</title>
<text text-anchor="start" x="146.7295" y="-1617.6" font-family="sans" font-weight="bold" font-size="18.00" fill="#000000">annotate_seqs_go</text>
<text text-anchor="start" x="130.7295" y="-1593.8" font-family="sans" font-size="10.00" fill="#000000"> </text>
<text text-anchor="start" x="134.7295" y="-1593.8" font-family="sans" font-weight="bold" font-size="14.00" fill="#000000">↪ input</text>
<text text-anchor="start" x="195.7295" y="-1593.8" font-family="sans" font-size="10.00" fill="#000000"> </text>
<text text-anchor="start" x="130.7295" y="-1574" font-family="monospace" font-size="10.00" fill="#000000">results/pfam_gobp_most_specific.txt</text>
<text text-anchor="start" x="130.7295" y="-1556" font-family="monospace" font-size="10.00" fill="#000000">results/philharmonic_hmmscan.tblout</text>
<text text-anchor="start" x="260.7295" y="-1535.8" font-family="sans" font-size="10.00" fill="#000000"> </text>
<text text-anchor="start" x="264.7295" y="-1535.8" font-family="sans" font-weight="bold" font-size="14.00" fill="#000000">output →</text>
<text text-anchor="start" x="337.7295" y="-1535.8" font-family="sans" font-size="10.00" fill="#000000"> </text>
<text text-anchor="start" x="130.7295" y="-1516" font-family="monospace" font-size="10.00" fill="#000000">results/philharmonic_GO_map.csv</text>
<polygon fill="#d95757" stroke="#d95757" points="124.7295,-1608 124.7295,-1608 348.7295,-1608 348.7295,-1608 124.7295,-1608"/>
<polygon fill="#d95757" stroke="#d95757" points="124.7295,-1550 124.7295,-1550 348.7295,-1550 348.7295,-1550 124.7295,-1550"/>
<polygon fill="none" stroke="#d95757" stroke-width="2" points="124.2295,-1507 124.2295,-1637 347.2295,-1637 347.2295,-1507 124.2295,-1507"/>
</g>
<!-- 3&#45;&gt;4 -->
<g id="edge8" class="edge">
<title>3&#45;&gt;4</title>
<path fill="none" stroke="#c0c0c0" stroke-width="2" d="M209.3689,-2135.7302C200.8819,-2124.5144 193.3101,-2112.4864 187.7295,-2100 110.3631,-1926.893 107.964,-1854.9124 164.7295,-1674 167.606,-1664.8326 171.6301,-1655.7682 176.3156,-1647.0483"/>
<polygon fill="#c0c0c0" stroke="#c0c0c0" stroke-width="2" points="179.5069,-1648.5172 181.4173,-1638.0961 173.4251,-1645.0513 179.5069,-1648.5172"/>
</g>
<!-- 6 -->
<g id="node7" class="node">
<title>6</title>
<text text-anchor="start" x="204.7295" y="-2079.6" font-family="sans" font-weight="bold" font-size="18.00" fill="#000000">prepare_hmmdb</text>
<text text-anchor="start" x="204.7295" y="-2055.8" font-family="sans" font-size="10.00" fill="#000000"> </text>
<text text-anchor="start" x="208.7295" y="-2055.8" font-family="sans" font-weight="bold" font-size="14.00" fill="#000000">↪ input</text>
<text text-anchor="start" x="269.7295" y="-2055.8" font-family="sans" font-size="10.00" fill="#000000"> </text>
<text text-anchor="start" x="204.7295" y="-2036" font-family="monospace" font-size="10.00" fill="#000000">results/Pfam&#45;A.hmm.gz</text>
<text text-anchor="start" x="288.7295" y="-2015.8" font-family="sans" font-size="10.00" fill="#000000"> </text>
<text text-anchor="start" x="292.7295" y="-2015.8" font-family="sans" font-weight="bold" font-size="14.00" fill="#000000">output →</text>
<text text-anchor="start" x="365.7295" y="-2015.8" font-family="sans" font-size="10.00" fill="#000000"> </text>
<text text-anchor="start" x="204.7295" y="-1996" font-family="monospace" font-size="10.00" fill="#000000">results/Pfam&#45;A.hmm</text>
<text text-anchor="start" x="204.7295" y="-1978" font-family="monospace" font-size="10.00" fill="#000000">results/Pfam&#45;A.hmm.h3f</text>
<text text-anchor="start" x="204.7295" y="-1960" font-family="monospace" font-size="10.00" fill="#000000">results/Pfam&#45;A.hmm.h3i</text>
<text text-anchor="start" x="204.7295" y="-1942" font-family="monospace" font-size="10.00" fill="#000000">results/Pfam&#45;A.hmm.h3m</text>
<text text-anchor="start" x="204.7295" y="-1924" font-family="monospace" font-size="10.00" fill="#000000">results/Pfam&#45;A.hmm.h3p</text>
<polygon fill="#bbd957" stroke="#bbd957" points="198.7295,-2070 198.7295,-2070 376.7295,-2070 376.7295,-2070 198.7295,-2070"/>
<polygon fill="#bbd957" stroke="#bbd957" points="198.7295,-2030 198.7295,-2030 376.7295,-2030 376.7295,-2030 198.7295,-2030"/>
<polygon fill="none" stroke="#bbd957" stroke-width="2" points="198.2295,-1915 198.2295,-2099 375.2295,-2099 375.2295,-1915 198.2295,-1915"/>
</g>
<!-- 3&#45;&gt;6 -->
<g id="edge11" class="edge">
<title>3&#45;&gt;6</title>
<path fill="none" stroke="#c0c0c0" stroke-width="2" d="M286.7295,-2135.7878C286.7295,-2127.5102 286.7295,-2118.9626 286.7295,-2110.392"/>
<polygon fill="#c0c0c0" stroke="#c0c0c0" stroke-width="2" points="290.2296,-2110.3351 286.7295,-2100.3352 283.2296,-2110.3352 290.2296,-2110.3351"/>
</g>
<!-- 7 -->
<g id="node8" class="node">
<title>7</title>
<text text-anchor="start" x="449.7295" y="-387.6" font-family="sans" font-weight="bold" font-size="18.00" fill="#000000">summarize_clusters</text>
<text text-anchor="start" x="413.7295" y="-363.8" font-family="sans" font-size="10.00" fill="#000000"> </text>
<text text-anchor="start" x="417.7295" y="-363.8" font-family="sans" font-weight="bold" font-size="14.00" fill="#000000">↪ input</text>
<text text-anchor="start" x="478.7295" y="-363.8" font-family="sans" font-size="10.00" fill="#000000"> </text>
<text text-anchor="start" x="413.7295" y="-344" font-family="monospace" font-size="10.00" fill="#000000">results/go.obo</text>
<text text-anchor="start" x="413.7295" y="-326" font-family="monospace" font-size="10.00" fill="#000000">results/philharmonic_clusters.functional.json</text>
<text text-anchor="start" x="603.7295" y="-305.8" font-family="sans" font-size="10.00" fill="#000000"> </text>
<text text-anchor="start" x="607.7295" y="-305.8" font-family="sans" font-weight="bold" font-size="14.00" fill="#000000">output →</text>
<text text-anchor="start" x="680.7295" y="-305.8" font-family="sans" font-size="10.00" fill="#000000"> </text>
<text text-anchor="start" x="413.7295" y="-286" font-family="monospace" font-size="10.00" fill="#000000">results/philharmonic_clusters.json</text>
<text text-anchor="start" x="413.7295" y="-268" font-family="monospace" font-size="10.00" fill="#000000">results/philharmonic_human_readable.txt</text>
<polygon fill="#d9cf57" stroke="#d9cf57" points="407.7295,-378 407.7295,-378 691.7295,-378 691.7295,-378 407.7295,-378"/>
<polygon fill="#d9cf57" stroke="#d9cf57" points="407.7295,-320 407.7295,-320 691.7295,-320 691.7295,-320 407.7295,-320"/>
<polygon fill="none" stroke="#d9cf57" stroke-width="2" points="407.2295,-259 407.2295,-407 690.2295,-407 690.2295,-259 407.2295,-259"/>
</g>
<!-- 3&#45;&gt;7 -->
<g id="edge13" class="edge">
<title>3&#45;&gt;7</title>
<path fill="none" stroke="#c0c0c0" stroke-width="2" d="M415.8623,-2144.6144C538.9744,-2073.0523 705.7295,-1944.9403 705.7295,-1776 705.7295,-1776 705.7295,-1776 705.7295,-696 705.7295,-587.6977 684.1897,-559.8307 637.7295,-462 630.5092,-446.7962 621.5816,-431.4078 612.1935,-416.8119"/>
<polygon fill="#c0c0c0" stroke="#c0c0c0" stroke-width="2" points="615.0331,-414.7595 606.6222,-408.3169 609.1797,-418.5985 615.0331,-414.7595"/>
</g>
<!-- 3&#45;&gt;12 -->
<g id="edge22" class="edge">
<title>3&#45;&gt;12</title>
<path fill="none" stroke="#c0c0c0" stroke-width="2" d="M157.7202,-2136.7609C145.2273,-2125.7412 133.8387,-2113.4826 124.7295,-2100 42.3062,-1978.0047 55.7295,-1923.2292 55.7295,-1776 55.7295,-1776 55.7295,-1776 55.7295,-696 55.7295,-603.1993 96.4773,-505.6571 134.317,-435.0829"/>
<polygon fill="#c0c0c0" stroke="#c0c0c0" stroke-width="2" points="137.4563,-436.6362 139.1529,-426.178 131.3048,-433.2956 137.4563,-436.6362"/>
</g>
<!-- 4&#45;&gt;0 -->
<g id="edge4" class="edge">
<title>4&#45;&gt;0</title>
<path fill="none" stroke="#c0c0c0" stroke-width="2" d="M200.7041,-1505.7571C139.0805,-1382.8555 17.7295,-1109.648 17.7295,-864 17.7295,-864 17.7295,-864 17.7295,-528 17.7295,-399.7218 -32.1683,-348.2054 36.7295,-240 58.4587,-205.8739 91.7264,-179.5009 127.0044,-159.3998"/>
<polygon fill="#c0c0c0" stroke="#c0c0c0" stroke-width="2" points="128.9507,-162.3232 136.0109,-154.4235 125.5654,-156.1962 128.9507,-162.3232"/>
</g>
<!-- 4&#45;&gt;2 -->
<g id="edge7" class="edge">
<title>4&#45;&gt;2</title>
<path fill="none" stroke="#c0c0c0" stroke-width="2" d="M300.732,-1505.9819C309.748,-1496.825 319.1726,-1487.2531 328.6374,-1477.6405"/>
<polygon fill="#c0c0c0" stroke="#c0c0c0" stroke-width="2" points="331.3547,-1479.8692 335.8768,-1470.2879 326.3668,-1474.958 331.3547,-1479.8692"/>
</g>
<!-- 8 -->
<g id="node9" class="node">
<title>8</title>
<text text-anchor="start" x="377.2295" y="-573.6" font-family="sans" font-weight="bold" font-size="18.00" fill="#000000">add_cluster_functions</text>
<text text-anchor="start" x="350.7295" y="-549.8" font-family="sans" font-size="10.00" fill="#000000"> </text>
<text text-anchor="start" x="354.7295" y="-549.8" font-family="sans" font-weight="bold" font-size="14.00" fill="#000000">↪ input</text>
<text text-anchor="start" x="415.7295" y="-549.8" font-family="sans" font-size="10.00" fill="#000000"> </text>
<text text-anchor="start" x="350.7295" y="-530" font-family="monospace" font-size="10.00" fill="#000000">results/philharmonic_GO_map.csv</text>
<text text-anchor="start" x="350.7295" y="-512" font-family="monospace" font-size="10.00" fill="#000000">results/philharmonic_clusters.recipe.json</text>
<text text-anchor="start" x="540.7295" y="-491.8" font-family="sans" font-size="10.00" fill="#000000"> </text>
<text text-anchor="start" x="544.7295" y="-491.8" font-family="sans" font-weight="bold" font-size="14.00" fill="#000000">output →</text>
<text text-anchor="start" x="617.7295" y="-491.8" font-family="sans" font-size="10.00" fill="#000000"> </text>
<text text-anchor="start" x="350.7295" y="-472" font-family="monospace" font-size="10.00" fill="#000000">results/philharmonic_clusters.functional.json</text>
<polygon fill="#d97f57" stroke="#d97f57" points="344.7295,-564 344.7295,-564 628.7295,-564 628.7295,-564 344.7295,-564"/>
<polygon fill="#d97f57" stroke="#d97f57" points="344.7295,-506 344.7295,-506 628.7295,-506 628.7295,-506 344.7295,-506"/>
<polygon fill="none" stroke="#d97f57" stroke-width="2" points="344.2295,-463 344.2295,-593 627.2295,-593 627.2295,-463 344.2295,-463"/>
</g>
<!-- 4&#45;&gt;8 -->
<g id="edge15" class="edge">
<title>4&#45;&gt;8</title>
<path fill="none" stroke="#c0c0c0" stroke-width="2" d="M246.1132,-1505.9452C257.3643,-1428.5325 273.7295,-1296.2887 273.7295,-1182 273.7295,-1182 273.7295,-1182 273.7295,-864 273.7295,-756.959 269.0715,-717.4989 330.7295,-630 338.1229,-619.5081 346.9695,-609.8114 356.6379,-600.9163"/>
<polygon fill="#c0c0c0" stroke="#c0c0c0" stroke-width="2" points="358.9914,-603.5074 364.1811,-594.2706 354.364,-598.255 358.9914,-603.5074"/>
</g>
<!-- 4&#45;&gt;12 -->
<g id="edge24" class="edge">
<title>4&#45;&gt;12</title>
<path fill="none" stroke="#c0c0c0" stroke-width="2" d="M225.3459,-1505.9452C214.0948,-1428.5325 197.7295,-1296.2887 197.7295,-1182 197.7295,-1182 197.7295,-1182 197.7295,-696 197.7295,-608.4238 197.7295,-508.9629 197.7295,-436.3254"/>
<polygon fill="#c0c0c0" stroke="#c0c0c0" stroke-width="2" points="201.2296,-436.2579 197.7295,-426.258 194.2296,-436.258 201.2296,-436.2579"/>
</g>
<!-- 5 -->
<g id="node6" class="node">
<title>5</title>
<text text-anchor="start" x="184.7295" y="-1857.6" font-family="sans" font-weight="bold" font-size="18.00" fill="#000000">annotate_seqs_pfam</text>
<text text-anchor="start" x="181.7295" y="-1833.8" font-family="sans" font-size="10.00" fill="#000000"> </text>
<text text-anchor="start" x="185.7295" y="-1833.8" font-family="sans" font-weight="bold" font-size="14.00" fill="#000000">↪ input</text>
<text text-anchor="start" x="246.7295" y="-1833.8" font-family="sans" font-size="10.00" fill="#000000"> </text>
<text text-anchor="start" x="181.7295" y="-1814" font-family="monospace" font-size="10.00" fill="#000000">results/Pfam&#45;A.hmm</text>
<text text-anchor="start" x="181.7295" y="-1796" font-family="monospace" font-size="10.00" fill="#000000">results/Pfam&#45;A.hmm.h3f</text>
<text text-anchor="start" x="181.7295" y="-1778" font-family="monospace" font-size="10.00" fill="#000000">results/Pfam&#45;A.hmm.h3i</text>
<text text-anchor="start" x="181.7295" y="-1760" font-family="monospace" font-size="10.00" fill="#000000">results/Pfam&#45;A.hmm.h3m</text>
<text text-anchor="start" x="181.7295" y="-1742" font-family="monospace" font-size="10.00" fill="#000000">results/Pfam&#45;A.hmm.h3p</text>
<text text-anchor="start" x="181.7295" y="-1724" font-family="monospace" font-size="10.00" fill="#000000">sample_sequences.fasta</text>
<text text-anchor="start" x="311.7295" y="-1703.8" font-family="sans" font-size="10.00" fill="#000000"> </text>
<text text-anchor="start" x="315.7295" y="-1703.8" font-family="sans" font-weight="bold" font-size="14.00" fill="#000000">output →</text>
<text text-anchor="start" x="388.7295" y="-1703.8" font-family="sans" font-size="10.00" fill="#000000"> </text>
<text text-anchor="start" x="181.7295" y="-1684" font-family="monospace" font-size="10.00" fill="#000000">results/philharmonic_hmmscan.tblout</text>
<polygon fill="#57d9bb" stroke="#57d9bb" points="175.7295,-1848 175.7295,-1848 399.7295,-1848 399.7295,-1848 175.7295,-1848"/>
<polygon fill="#57d9bb" stroke="#57d9bb" points="175.7295,-1718 175.7295,-1718 399.7295,-1718 399.7295,-1718 175.7295,-1718"/>
<polygon fill="none" stroke="#57d9bb" stroke-width="2" points="175.2295,-1675 175.2295,-1877 398.2295,-1877 398.2295,-1675 175.2295,-1675"/>
</g>
<!-- 5&#45;&gt;4 -->
<g id="edge9" class="edge">
<title>5&#45;&gt;4</title>
<path fill="none" stroke="#c0c0c0" stroke-width="2" d="M261.1548,-1673.7012C258.9755,-1664.9838 256.7969,-1656.2693 254.6826,-1647.8124"/>
<polygon fill="#c0c0c0" stroke="#c0c0c0" stroke-width="2" points="258.055,-1646.8709 252.2341,-1638.0183 251.264,-1648.5687 258.055,-1646.8709"/>
</g>
<!-- 6&#45;&gt;5 -->
<g id="edge10" class="edge">
<title>6&#45;&gt;5</title>
<path fill="none" stroke="#c0c0c0" stroke-width="2" d="M286.7295,-1913.7093C286.7295,-1905.4303 286.7295,-1896.9931 286.7295,-1888.5766"/>
<polygon fill="#c0c0c0" stroke="#c0c0c0" stroke-width="2" points="290.2296,-1888.3327 286.7295,-1878.3327 283.2296,-1888.3327 290.2296,-1888.3327"/>
</g>
<!-- 7&#45;&gt;0 -->
<g id="edge1" class="edge">
<title>7&#45;&gt;0</title>
<path fill="none" stroke="#c0c0c0" stroke-width="2" d="M463.6295,-257.6816C446.7081,-242.7052 428.6233,-226.6991 410.7273,-210.8601"/>
<polygon fill="#c0c0c0" stroke="#c0c0c0" stroke-width="2" points="412.8811,-208.0924 403.0731,-204.0857 408.2417,-213.3342 412.8811,-208.0924"/>
</g>
<!-- 8&#45;&gt;7 -->
<g id="edge12" class="edge">
<title>8&#45;&gt;7</title>
<path fill="none" stroke="#c0c0c0" stroke-width="2" d="M507.0585,-461.9819C511.6558,-447.752 516.577,-432.5198 521.3682,-417.69"/>
<polygon fill="#c0c0c0" stroke="#c0c0c0" stroke-width="2" points="524.7493,-418.6091 524.4932,-408.0173 518.0883,-416.457 524.7493,-418.6091"/>
</g>
<!-- 8&#45;&gt;12 -->
<g id="edge21" class="edge">
<title>8&#45;&gt;12</title>
<path fill="none" stroke="#c0c0c0" stroke-width="2" d="M388.2259,-461.9819C373.8375,-452.2398 358.7553,-442.0279 343.645,-431.7969"/>
<polygon fill="#c0c0c0" stroke="#c0c0c0" stroke-width="2" points="345.4946,-428.8224 335.2517,-426.114 341.5699,-434.6188 345.4946,-428.8224"/>
</g>
<!-- 9&#45;&gt;8 -->
<g id="edge14" class="edge">
<title>9&#45;&gt;8</title>
<path fill="none" stroke="#c0c0c0" stroke-width="2" d="M487.5439,-629.602C487.396,-621.3209 487.2438,-612.801 487.0935,-604.3839"/>
<polygon fill="#c0c0c0" stroke="#c0c0c0" stroke-width="2" points="490.5896,-604.1267 486.9115,-594.1908 483.5907,-604.2517 490.5896,-604.1267"/>
</g>
<!-- 10&#45;&gt;9 -->
<g id="edge16" class="edge">
<title>10&#45;&gt;9</title>
<path fill="none" stroke="#c0c0c0" stroke-width="2" d="M511.7109,-797.602C509.8173,-789.2299 507.8683,-780.6137 505.9441,-772.1064"/>
<polygon fill="#c0c0c0" stroke="#c0c0c0" stroke-width="2" points="509.3213,-771.1722 503.7013,-762.1908 502.4937,-772.7166 509.3213,-771.1722"/>
</g>
<!-- 11&#45;&gt;10 -->
<g id="edge19" class="edge">
<title>11&#45;&gt;10</title>
<path fill="none" stroke="#c0c0c0" stroke-width="2" d="M515.2279,-965.5974C516.1616,-957.3498 517.1343,-948.7576 518.1013,-940.216"/>
<polygon fill="#c0c0c0" stroke="#c0c0c0" stroke-width="2" points="521.5839,-940.5661 519.2311,-930.2358 514.6284,-939.7786 521.5839,-940.5661"/>
</g>
<!-- 12&#45;&gt;0 -->
<g id="edge2" class="edge">
<title>12&#45;&gt;0</title>
<path fill="none" stroke="#c0c0c0" stroke-width="2" d="M234.0766,-239.7093C237.4085,-231.1574 240.8062,-222.4367 244.1928,-213.7443"/>
<polygon fill="#c0c0c0" stroke="#c0c0c0" stroke-width="2" points="247.4905,-214.9211 247.8597,-204.3327 240.9681,-212.3798 247.4905,-214.9211"/>
</g>
</g>
</svg>
