<?xml version="1.0" encoding="UTF-8" standalone="no"?>
<!DOCTYPE svg PUBLIC "-//W3C//DTD SVG 1.1//EN"
 "http://www.w3.org/Graphics/SVG/1.1/DTD/svg11.dtd">
<!-- Generated by graphviz version 2.40.1 (0)
 -->
<!-- Title: snakemake_dag Pages: 1 -->
<svg width="826pt" height="2326pt"
 viewBox="0.00 0.00 826.10 2326.00" xmlns="http://www.w3.org/2000/svg" xmlns:xlink="http://www.w3.org/1999/xlink">
<g id="graph0" class="graph" transform="scale(1 1) rotate(0) translate(4 2322)">
<title>snakemake_dag</title>
<polygon fill="#ffffff" stroke="transparent" points="-4,4 -4,-2322 822.1036,-2322 822.1036,4 -4,4"/>
<!-- 0 -->
<g id="node1" class="node">
<title>0</title>
<text text-anchor="start" x="285.1036" y="-165.6" font-family="sans" font-weight="bold" font-size="18.00" fill="#000000">PHILHARMONIC</text>
<text text-anchor="start" x="219.6036" y="-141.8" font-family="sans" font-size="10.00" fill="#000000"> </text>
<text text-anchor="start" x="223.6036" y="-141.8" font-family="sans" font-weight="bold" font-size="14.00" fill="#000000">↪ input</text>
<text text-anchor="start" x="284.6036" y="-141.8" font-family="sans" font-size="10.00" fill="#000000"> </text>
<text text-anchor="start" x="219.6036" y="-122" font-family="monospace" font-size="10.00" fill="#000000">results/philharmonic_cluster_graph.tsv</text>
<text text-anchor="start" x="219.6036" y="-104" font-family="monospace" font-size="10.00" fill="#000000">results/philharmonic_cluster_graph_functions.tsv</text>
<text text-anchor="start" x="219.6036" y="-86" font-family="monospace" font-size="10.00" fill="#000000">results/philharmonic_clusters.json</text>
<text text-anchor="start" x="219.6036" y="-68" font-family="monospace" font-size="10.00" fill="#000000">results/philharmonic_human_readable.txt</text>
<text text-anchor="start" x="219.6036" y="-50" font-family="monospace" font-size="10.00" fill="#000000">results/philharmonic_network.positive.tsv</text>
<text text-anchor="start" x="427.6036" y="-29.8" font-family="sans" font-size="10.00" fill="#000000"> </text>
<text text-anchor="start" x="431.6036" y="-29.8" font-family="sans" font-weight="bold" font-size="14.00" fill="#000000">output →</text>
<text text-anchor="start" x="504.6036" y="-29.8" font-family="sans" font-size="10.00" fill="#000000"> </text>
<text text-anchor="start" x="219.6036" y="-10" font-family="monospace" font-size="10.00" fill="#000000">results/philharmonic.zip</text>
<polygon fill="#57d97c" stroke="#57d97c" points="213.6036,-156 213.6036,-156 515.6036,-156 515.6036,-156 213.6036,-156"/>
<polygon fill="#57d97c" stroke="#57d97c" points="213.6036,-44 213.6036,-44 515.6036,-44 515.6036,-44 213.6036,-44"/>
<polygon fill="none" stroke="#57d97c" stroke-width="2" points="213.1036,-1 213.1036,-185 514.1036,-185 514.1036,-1 213.1036,-1"/>
</g>
<!-- 1 -->
<g id="node2" class="node">
<title>1</title>
<text text-anchor="start" x="194.6036" y="-1263.6" font-family="sans" font-weight="bold" font-size="18.00" fill="#000000">predict_network</text>
<text text-anchor="start" x="152.6036" y="-1239.8" font-family="sans" font-size="10.00" fill="#000000"> </text>
<text text-anchor="start" x="156.6036" y="-1239.8" font-family="sans" font-weight="bold" font-size="14.00" fill="#000000">↪ input</text>
<text text-anchor="start" x="217.6036" y="-1239.8" font-family="sans" font-size="10.00" fill="#000000"> </text>
<text text-anchor="start" x="152.6036" y="-1220" font-family="monospace" font-size="10.00" fill="#000000">results/philharmonic_candidates.tsv</text>
<text text-anchor="start" x="152.6036" y="-1202" font-family="monospace" font-size="10.00" fill="#000000">sample_sequences.fasta</text>
<text text-anchor="start" x="318.6036" y="-1181.8" font-family="sans" font-size="10.00" fill="#000000"> </text>
<text text-anchor="start" x="322.6036" y="-1181.8" font-family="sans" font-weight="bold" font-size="14.00" fill="#000000">output →</text>
<text text-anchor="start" x="395.6036" y="-1181.8" font-family="sans" font-size="10.00" fill="#000000"> </text>
<text text-anchor="start" x="152.6036" y="-1162" font-family="monospace" font-size="10.00" fill="#000000">results/philharmonic_network.positive.tsv</text>
<polygon fill="#d9a157" stroke="#d9a157" points="146.6036,-1254 146.6036,-1254 406.6036,-1254 406.6036,-1254 146.6036,-1254"/>
<polygon fill="#d9a157" stroke="#d9a157" points="146.6036,-1196 146.6036,-1196 406.6036,-1196 406.6036,-1196 146.6036,-1196"/>
<polygon fill="none" stroke="#d9a157" stroke-width="2" points="146.1036,-1153 146.1036,-1283 405.1036,-1283 405.1036,-1153 146.1036,-1153"/>
</g>
<!-- 1&#45;&gt;0 -->
<g id="edge2" class="edge">
<title>1&#45;&gt;0</title>
<path fill="none" stroke="#c0c0c0" stroke-width="2" d="M153.9194,-1151.6938C141.6339,-1141.0769 130.4505,-1129.1802 121.6036,-1116 67.0513,-1034.7271 78.6036,-997.8838 78.6036,-900 78.6036,-900 78.6036,-900 78.6036,-510 78.6036,-370.6399 118.1614,-332.8636 202.6036,-222 210.1385,-212.1076 218.5908,-202.5257 227.5732,-193.3521"/>
<polygon fill="#c0c0c0" stroke="#c0c0c0" stroke-width="2" points="230.2592,-195.617 234.8831,-186.0844 225.3238,-190.6529 230.2592,-195.617"/>
</g>
<!-- 9 -->
<g id="node10" class="node">
<title>9</title>
<text text-anchor="start" x="208.1036" y="-777.6" font-family="sans" font-weight="bold" font-size="18.00" fill="#000000">reconnect_recipe</text>
<text text-anchor="start" x="152.6036" y="-753.8" font-family="sans" font-size="10.00" fill="#000000"> </text>
<text text-anchor="start" x="156.6036" y="-753.8" font-family="sans" font-weight="bold" font-size="14.00" fill="#000000">↪ input</text>
<text text-anchor="start" x="217.6036" y="-753.8" font-family="sans" font-size="10.00" fill="#000000"> </text>
<text text-anchor="start" x="152.6036" y="-734" font-family="monospace" font-size="10.00" fill="#000000">results/go.obo</text>
<text text-anchor="start" x="152.6036" y="-716" font-family="monospace" font-size="10.00" fill="#000000">results/philharmonic_GO_map.csv</text>
<text text-anchor="start" x="152.6036" y="-698" font-family="monospace" font-size="10.00" fill="#000000">results/philharmonic_clusters.disconnected.json</text>
<text text-anchor="start" x="152.6036" y="-680" font-family="monospace" font-size="10.00" fill="#000000">results/philharmonic_distances.DSD1</text>
<text text-anchor="start" x="152.6036" y="-662" font-family="monospace" font-size="10.00" fill="#000000">results/philharmonic_network.positive.tsv</text>
<text text-anchor="start" x="354.6036" y="-641.8" font-family="sans" font-size="10.00" fill="#000000"> </text>
<text text-anchor="start" x="358.6036" y="-641.8" font-family="sans" font-weight="bold" font-size="14.00" fill="#000000">output →</text>
<text text-anchor="start" x="431.6036" y="-641.8" font-family="sans" font-size="10.00" fill="#000000"> </text>
<text text-anchor="start" x="152.6036" y="-622" font-family="monospace" font-size="10.00" fill="#000000">results/philharmonic_clusters.recipe.json</text>
<polygon fill="#7cd957" stroke="#7cd957" points="146.6036,-768 146.6036,-768 442.6036,-768 442.6036,-768 146.6036,-768"/>
<polygon fill="#7cd957" stroke="#7cd957" points="146.6036,-656 146.6036,-656 442.6036,-656 442.6036,-656 146.6036,-656"/>
<polygon fill="none" stroke="#7cd957" stroke-width="2" points="146.1036,-613 146.1036,-797 441.1036,-797 441.1036,-613 146.1036,-613"/>
</g>
<!-- 1&#45;&gt;9 -->
<g id="edge16" class="edge">
<title>1&#45;&gt;9</title>
<path fill="none" stroke="#c0c0c0" stroke-width="2" d="M162.4568,-1151.8648C151.7263,-1141.2183 142.3529,-1129.2678 135.6036,-1116 112.6314,-1070.8404 132.901,-1052.5945 135.6036,-1002 139.6093,-927.0129 119.829,-901.07 153.6036,-834 158.4405,-824.3948 164.3097,-815.1473 170.8705,-806.3216"/>
<polygon fill="#c0c0c0" stroke="#c0c0c0" stroke-width="2" points="173.704,-808.3794 177.0804,-798.3369 168.1784,-804.0819 173.704,-808.3794"/>
</g>
<!-- 10 -->
<g id="node11" class="node">
<title>10</title>
<text text-anchor="start" x="251.6036" y="-945.6" font-family="sans" font-weight="bold" font-size="18.00" fill="#000000">cluster_network</text>
<text text-anchor="start" x="190.6036" y="-921.8" font-family="sans" font-size="10.00" fill="#000000"> </text>
<text text-anchor="start" x="194.6036" y="-921.8" font-family="sans" font-weight="bold" font-size="14.00" fill="#000000">↪ input</text>
<text text-anchor="start" x="255.6036" y="-921.8" font-family="sans" font-size="10.00" fill="#000000"> </text>
<text text-anchor="start" x="190.6036" y="-902" font-family="monospace" font-size="10.00" fill="#000000">results/philharmonic_distances.DSD1</text>
<text text-anchor="start" x="190.6036" y="-884" font-family="monospace" font-size="10.00" fill="#000000">results/philharmonic_network.positive.tsv</text>
<text text-anchor="start" x="392.6036" y="-863.8" font-family="sans" font-size="10.00" fill="#000000"> </text>
<text text-anchor="start" x="396.6036" y="-863.8" font-family="sans" font-weight="bold" font-size="14.00" fill="#000000">output →</text>
<text text-anchor="start" x="469.6036" y="-863.8" font-family="sans" font-size="10.00" fill="#000000"> </text>
<text text-anchor="start" x="190.6036" y="-844" font-family="monospace" font-size="10.00" fill="#000000">results/philharmonic_clusters.disconnected.json</text>
<polygon fill="#a1d957" stroke="#a1d957" points="184.6036,-936 184.6036,-936 480.6036,-936 480.6036,-936 184.6036,-936"/>
<polygon fill="#a1d957" stroke="#a1d957" points="184.6036,-878 184.6036,-878 480.6036,-878 480.6036,-878 184.6036,-878"/>
<polygon fill="none" stroke="#a1d957" stroke-width="2" points="184.1036,-835 184.1036,-965 479.1036,-965 479.1036,-835 184.1036,-835"/>
</g>
<!-- 1&#45;&gt;10 -->
<g id="edge21" class="edge">
<title>1&#45;&gt;10</title>
<path fill="none" stroke="#c0c0c0" stroke-width="2" d="M388.7504,-1151.8648C399.481,-1141.2183 408.8544,-1129.2678 415.6036,-1116 438.5759,-1070.8404 432.7133,-1049.6904 415.6036,-1002 412.2338,-992.6072 407.5838,-983.4613 402.186,-974.7497"/>
<polygon fill="#c0c0c0" stroke="#c0c0c0" stroke-width="2" points="404.9767,-972.6232 396.5587,-966.1899 399.1275,-976.4686 404.9767,-972.6232"/>
</g>
<!-- 11 -->
<g id="node12" class="node">
<title>11</title>
<text text-anchor="start" x="180.1036" y="-1095.6" font-family="sans" font-weight="bold" font-size="18.00" fill="#000000">compute_distances</text>
<text text-anchor="start" x="152.6036" y="-1071.8" font-family="sans" font-size="10.00" fill="#000000"> </text>
<text text-anchor="start" x="156.6036" y="-1071.8" font-family="sans" font-weight="bold" font-size="14.00" fill="#000000">↪ input</text>
<text text-anchor="start" x="217.6036" y="-1071.8" font-family="sans" font-size="10.00" fill="#000000"> </text>
<text text-anchor="start" x="152.6036" y="-1052" font-family="monospace" font-size="10.00" fill="#000000">results/philharmonic_network.positive.tsv</text>
<text text-anchor="start" x="318.6036" y="-1031.8" font-family="sans" font-size="10.00" fill="#000000"> </text>
<text text-anchor="start" x="322.6036" y="-1031.8" font-family="sans" font-weight="bold" font-size="14.00" fill="#000000">output →</text>
<text text-anchor="start" x="395.6036" y="-1031.8" font-family="sans" font-size="10.00" fill="#000000"> </text>
<text text-anchor="start" x="152.6036" y="-1012" font-family="monospace" font-size="10.00" fill="#000000">results/philharmonic_distances.DSD1</text>
<polygon fill="#57c6d9" stroke="#57c6d9" points="146.6036,-1086 146.6036,-1086 406.6036,-1086 406.6036,-1086 146.6036,-1086"/>
<polygon fill="#57c6d9" stroke="#57c6d9" points="146.6036,-1046 146.6036,-1046 406.6036,-1046 406.6036,-1046 146.6036,-1046"/>
<polygon fill="none" stroke="#57c6d9" stroke-width="2" points="146.1036,-1003 146.1036,-1115 405.1036,-1115 405.1036,-1003 146.1036,-1003"/>
</g>
<!-- 1&#45;&gt;11 -->
<g id="edge22" class="edge">
<title>1&#45;&gt;11</title>
<path fill="none" stroke="#c0c0c0" stroke-width="2" d="M275.6036,-1151.951C275.6036,-1143.5194 275.6036,-1134.8799 275.6036,-1126.4269"/>
<polygon fill="#c0c0c0" stroke="#c0c0c0" stroke-width="2" points="279.1037,-1126.235 275.6036,-1116.235 272.1037,-1126.2351 279.1037,-1126.235"/>
</g>
<!-- 12 -->
<g id="node13" class="node">
<title>12</title>
<text text-anchor="start" x="295.1036" y="-387.6" font-family="sans" font-weight="bold" font-size="18.00" fill="#000000">cluster_graph</text>
<text text-anchor="start" x="219.6036" y="-363.8" font-family="sans" font-size="10.00" fill="#000000"> </text>
<text text-anchor="start" x="223.6036" y="-363.8" font-family="sans" font-weight="bold" font-size="14.00" fill="#000000">↪ input</text>
<text text-anchor="start" x="284.6036" y="-363.8" font-family="sans" font-size="10.00" fill="#000000"> </text>
<text text-anchor="start" x="219.6036" y="-344" font-family="monospace" font-size="10.00" fill="#000000">results/goslim_generic.obo</text>
<text text-anchor="start" x="219.6036" y="-326" font-family="monospace" font-size="10.00" fill="#000000">results/philharmonic_GO_map.csv</text>
<text text-anchor="start" x="219.6036" y="-308" font-family="monospace" font-size="10.00" fill="#000000">results/philharmonic_clusters.functional.json</text>
<text text-anchor="start" x="219.6036" y="-290" font-family="monospace" font-size="10.00" fill="#000000">results/philharmonic_network.positive.tsv</text>
<text text-anchor="start" x="427.6036" y="-269.8" font-family="sans" font-size="10.00" fill="#000000"> </text>
<text text-anchor="start" x="431.6036" y="-269.8" font-family="sans" font-weight="bold" font-size="14.00" fill="#000000">output →</text>
<text text-anchor="start" x="504.6036" y="-269.8" font-family="sans" font-size="10.00" fill="#000000"> </text>
<text text-anchor="start" x="219.6036" y="-250" font-family="monospace" font-size="10.00" fill="#000000">results/philharmonic_cluster_graph.tsv</text>
<text text-anchor="start" x="219.6036" y="-232" font-family="monospace" font-size="10.00" fill="#000000">results/philharmonic_cluster_graph_functions.tsv</text>
<polygon fill="#57d9c6" stroke="#57d9c6" points="213.6036,-378 213.6036,-378 515.6036,-378 515.6036,-378 213.6036,-378"/>
<polygon fill="#57d9c6" stroke="#57d9c6" points="213.6036,-284 213.6036,-284 515.6036,-284 515.6036,-284 213.6036,-284"/>
<polygon fill="none" stroke="#57d9c6" stroke-width="2" points="213.1036,-223 213.1036,-407 514.1036,-407 514.1036,-223 213.1036,-223"/>
</g>
<!-- 1&#45;&gt;12 -->
<g id="edge26" class="edge">
<title>1&#45;&gt;12</title>
<path fill="none" stroke="#c0c0c0" stroke-width="2" d="M399.7479,-1151.9197C413.3701,-1141.1843 426.0865,-1129.1972 436.6036,-1116 480.6693,-1060.7051 477.654,-1035.6887 489.6036,-966 516.3466,-810.039 544.4074,-740.1658 451.6036,-612 431.548,-584.3024 402.3494,-604.6004 383.6036,-576 353.5337,-530.1224 347.3734,-469.4844 349.2608,-418.204"/>
<polygon fill="#c0c0c0" stroke="#c0c0c0" stroke-width="2" points="352.7632,-418.2344 349.7409,-408.0798 345.7711,-417.9027 352.7632,-418.2344"/>
</g>
<!-- 2 -->
<g id="node3" class="node">
<title>2</title>
<text text-anchor="start" x="171.1036" y="-1485.6" font-family="sans" font-weight="bold" font-size="18.00" fill="#000000">generate_candidates</text>
<text text-anchor="start" x="161.6036" y="-1461.8" font-family="sans" font-size="10.00" fill="#000000"> </text>
<text text-anchor="start" x="165.6036" y="-1461.8" font-family="sans" font-weight="bold" font-size="14.00" fill="#000000">↪ input</text>
<text text-anchor="start" x="226.6036" y="-1461.8" font-family="sans" font-size="10.00" fill="#000000"> </text>
<text text-anchor="start" x="161.6036" y="-1442" font-family="monospace" font-size="10.00" fill="#000000">assets/go_filter.txt</text>
<text text-anchor="start" x="161.6036" y="-1424" font-family="monospace" font-size="10.00" fill="#000000">results/go.obo</text>
<text text-anchor="start" x="161.6036" y="-1406" font-family="monospace" font-size="10.00" fill="#000000">results/philharmonic_GO_map.csv</text>
<text text-anchor="start" x="161.6036" y="-1388" font-family="monospace" font-size="10.00" fill="#000000">sample_sequences.fasta</text>
<text text-anchor="start" x="309.6036" y="-1367.8" font-family="sans" font-size="10.00" fill="#000000"> </text>
<text text-anchor="start" x="313.6036" y="-1367.8" font-family="sans" font-weight="bold" font-size="14.00" fill="#000000">output →</text>
<text text-anchor="start" x="386.6036" y="-1367.8" font-family="sans" font-size="10.00" fill="#000000"> </text>
<text text-anchor="start" x="161.6036" y="-1348" font-family="monospace" font-size="10.00" fill="#000000">results/philharmonic_candidates.tsv</text>
<text text-anchor="start" x="161.6036" y="-1330" font-family="monospace" font-size="10.00" fill="#000000">results/philharmonic_kept_proteins.txt</text>
<polygon fill="#57d9a1" stroke="#57d9a1" points="155.6036,-1476 155.6036,-1476 397.6036,-1476 397.6036,-1476 155.6036,-1476"/>
<polygon fill="#57d9a1" stroke="#57d9a1" points="155.6036,-1382 155.6036,-1382 397.6036,-1382 397.6036,-1382 155.6036,-1382"/>
<polygon fill="none" stroke="#57d9a1" stroke-width="2" points="155.1036,-1321 155.1036,-1505 396.1036,-1505 396.1036,-1321 155.1036,-1321"/>
</g>
<!-- 2&#45;&gt;1 -->
<g id="edge4" class="edge">
<title>2&#45;&gt;1</title>
<path fill="none" stroke="#c0c0c0" stroke-width="2" d="M275.6036,-1319.7834C275.6036,-1311.2208 275.6036,-1302.614 275.6036,-1294.2279"/>
<polygon fill="#c0c0c0" stroke="#c0c0c0" stroke-width="2" points="279.1037,-1294.1259 275.6036,-1284.126 272.1037,-1294.126 279.1037,-1294.1259"/>
</g>
<!-- 3 -->
<g id="node4" class="node">
<title>3</title>
<text text-anchor="start" x="218.6036" y="-2297.6" font-family="sans" font-weight="bold" font-size="18.00" fill="#000000">download_required_files</text>
<text text-anchor="start" x="218.6036" y="-2276" font-family="sans" font-size="10.00" fill="#000000"> &#160;</text>
<text text-anchor="start" x="381.6036" y="-2255.8" font-family="sans" font-size="10.00" fill="#000000"> </text>
<text text-anchor="start" x="385.6036" y="-2255.8" font-family="sans" font-weight="bold" font-size="14.00" fill="#000000">output →</text>
<text text-anchor="start" x="458.6036" y="-2255.8" font-family="sans" font-size="10.00" fill="#000000"> </text>
<text text-anchor="start" x="218.6036" y="-2236" font-family="monospace" font-size="10.00" fill="#000000">results/Pfam&#45;A.hmm.gz</text>
<text text-anchor="start" x="218.6036" y="-2218" font-family="monospace" font-size="10.00" fill="#000000">results/go.obo</text>
<text text-anchor="start" x="218.6036" y="-2200" font-family="monospace" font-size="10.00" fill="#000000">results/goslim_generic.obo</text>
<text text-anchor="start" x="218.6036" y="-2182" font-family="monospace" font-size="10.00" fill="#000000">results/pfam_gobp_most_specific.txt</text>
<polygon fill="#57a1d9" stroke="#57a1d9" points="212.6036,-2288 212.6036,-2288 469.6036,-2288 469.6036,-2288 212.6036,-2288"/>
<polygon fill="#57a1d9" stroke="#57a1d9" points="212.6036,-2270 212.6036,-2270 469.6036,-2270 469.6036,-2270 212.6036,-2270"/>
<polygon fill="none" stroke="#57a1d9" stroke-width="2" points="212.6036,-2173 212.6036,-2317 468.6036,-2317 468.6036,-2173 212.6036,-2173"/>
</g>
<!-- 3&#45;&gt;2 -->
<g id="edge5" class="edge">
<title>3&#45;&gt;2</title>
<path fill="none" stroke="#c0c0c0" stroke-width="2" d="M311.9789,-2171.9018C308.2538,-2160.0519 304.9303,-2147.7971 302.6036,-2136 259.7749,-1918.8422 263.1147,-1658.0748 269.3565,-1516.6264"/>
<polygon fill="#c0c0c0" stroke="#c0c0c0" stroke-width="2" points="272.8712,-1516.3829 269.8299,-1506.2339 265.8784,-1516.0643 272.8712,-1516.3829"/>
</g>
<!-- 4 -->
<g id="node5" class="node">
<title>4</title>
<text text-anchor="start" x="460.6036" y="-1653.6" font-family="sans" font-weight="bold" font-size="18.00" fill="#000000">annotate_seqs_go</text>
<text text-anchor="start" x="444.6036" y="-1629.8" font-family="sans" font-size="10.00" fill="#000000"> </text>
<text text-anchor="start" x="448.6036" y="-1629.8" font-family="sans" font-weight="bold" font-size="14.00" fill="#000000">↪ input</text>
<text text-anchor="start" x="509.6036" y="-1629.8" font-family="sans" font-size="10.00" fill="#000000"> </text>
<text text-anchor="start" x="444.6036" y="-1610" font-family="monospace" font-size="10.00" fill="#000000">results/pfam_gobp_most_specific.txt</text>
<text text-anchor="start" x="444.6036" y="-1592" font-family="monospace" font-size="10.00" fill="#000000">results/philharmonic_hmmscan.tblout</text>
<text text-anchor="start" x="574.6036" y="-1571.8" font-family="sans" font-size="10.00" fill="#000000"> </text>
<text text-anchor="start" x="578.6036" y="-1571.8" font-family="sans" font-weight="bold" font-size="14.00" fill="#000000">output →</text>
<text text-anchor="start" x="651.6036" y="-1571.8" font-family="sans" font-size="10.00" fill="#000000"> </text>
<text text-anchor="start" x="444.6036" y="-1552" font-family="monospace" font-size="10.00" fill="#000000">results/philharmonic_GO_map.csv</text>
<polygon fill="#d97c57" stroke="#d97c57" points="438.6036,-1644 438.6036,-1644 662.6036,-1644 662.6036,-1644 438.6036,-1644"/>
<polygon fill="#d97c57" stroke="#d97c57" points="438.6036,-1586 438.6036,-1586 662.6036,-1586 662.6036,-1586 438.6036,-1586"/>
<polygon fill="none" stroke="#d97c57" stroke-width="2" points="438.1036,-1543 438.1036,-1673 661.1036,-1673 661.1036,-1543 438.1036,-1543"/>
</g>
<!-- 3&#45;&gt;4 -->
<g id="edge7" class="edge">
<title>3&#45;&gt;4</title>
<path fill="none" stroke="#c0c0c0" stroke-width="2" d="M469.1388,-2171.9586C480.808,-2161.1648 491.3251,-2149.1779 499.6036,-2136 587.4748,-1996.1258 576.744,-1792.9973 562.4549,-1683.96"/>
<polygon fill="#c0c0c0" stroke="#c0c0c0" stroke-width="2" points="565.9202,-1683.4674 561.1091,-1674.0279 558.9836,-1684.4074 565.9202,-1683.4674"/>
</g>
<!-- 6 -->
<g id="node7" class="node">
<title>6</title>
<text text-anchor="start" x="318.6036" y="-2115.6" font-family="sans" font-weight="bold" font-size="18.00" fill="#000000">prepare_hmmdb</text>
<text text-anchor="start" x="318.6036" y="-2091.8" font-family="sans" font-size="10.00" fill="#000000"> </text>
<text text-anchor="start" x="322.6036" y="-2091.8" font-family="sans" font-weight="bold" font-size="14.00" fill="#000000">↪ input</text>
<text text-anchor="start" x="383.6036" y="-2091.8" font-family="sans" font-size="10.00" fill="#000000"> </text>
<text text-anchor="start" x="318.6036" y="-2072" font-family="monospace" font-size="10.00" fill="#000000">results/Pfam&#45;A.hmm.gz</text>
<text text-anchor="start" x="402.6036" y="-2051.8" font-family="sans" font-size="10.00" fill="#000000"> </text>
<text text-anchor="start" x="406.6036" y="-2051.8" font-family="sans" font-weight="bold" font-size="14.00" fill="#000000">output →</text>
<text text-anchor="start" x="479.6036" y="-2051.8" font-family="sans" font-size="10.00" fill="#000000"> </text>
<text text-anchor="start" x="318.6036" y="-2032" font-family="monospace" font-size="10.00" fill="#000000">results/Pfam&#45;A.hmm</text>
<text text-anchor="start" x="318.6036" y="-2014" font-family="monospace" font-size="10.00" fill="#000000">results/Pfam&#45;A.hmm.h3f</text>
<text text-anchor="start" x="318.6036" y="-1996" font-family="monospace" font-size="10.00" fill="#000000">results/Pfam&#45;A.hmm.h3i</text>
<text text-anchor="start" x="318.6036" y="-1978" font-family="monospace" font-size="10.00" fill="#000000">results/Pfam&#45;A.hmm.h3m</text>
<text text-anchor="start" x="318.6036" y="-1960" font-family="monospace" font-size="10.00" fill="#000000">results/Pfam&#45;A.hmm.h3p</text>
<polygon fill="#d95757" stroke="#d95757" points="312.6036,-2106 312.6036,-2106 490.6036,-2106 490.6036,-2106 312.6036,-2106"/>
<polygon fill="#d95757" stroke="#d95757" points="312.6036,-2066 312.6036,-2066 490.6036,-2066 490.6036,-2066 312.6036,-2066"/>
<polygon fill="none" stroke="#d95757" stroke-width="2" points="312.1036,-1951 312.1036,-2135 489.1036,-2135 489.1036,-1951 312.1036,-1951"/>
</g>
<!-- 3&#45;&gt;6 -->
<g id="edge10" class="edge">
<title>3&#45;&gt;6</title>
<path fill="none" stroke="#c0c0c0" stroke-width="2" d="M362.3498,-2171.7878C364.8353,-2163.4202 367.4026,-2154.7767 369.9762,-2146.1125"/>
<polygon fill="#c0c0c0" stroke="#c0c0c0" stroke-width="2" points="373.388,-2146.9178 372.8803,-2136.3352 366.6778,-2144.9246 373.388,-2146.9178"/>
</g>
<!-- 7 -->
<g id="node8" class="node">
<title>7</title>
<text text-anchor="start" x="576.6036" y="-369.6" font-family="sans" font-weight="bold" font-size="18.00" fill="#000000">summarize_clusters</text>
<text text-anchor="start" x="540.6036" y="-345.8" font-family="sans" font-size="10.00" fill="#000000"> </text>
<text text-anchor="start" x="544.6036" y="-345.8" font-family="sans" font-weight="bold" font-size="14.00" fill="#000000">↪ input</text>
<text text-anchor="start" x="605.6036" y="-345.8" font-family="sans" font-size="10.00" fill="#000000"> </text>
<text text-anchor="start" x="540.6036" y="-326" font-family="monospace" font-size="10.00" fill="#000000">results/go.obo</text>
<text text-anchor="start" x="540.6036" y="-308" font-family="monospace" font-size="10.00" fill="#000000">results/philharmonic_clusters.functional.json</text>
<text text-anchor="start" x="730.6036" y="-287.8" font-family="sans" font-size="10.00" fill="#000000"> </text>
<text text-anchor="start" x="734.6036" y="-287.8" font-family="sans" font-weight="bold" font-size="14.00" fill="#000000">output →</text>
<text text-anchor="start" x="807.6036" y="-287.8" font-family="sans" font-size="10.00" fill="#000000"> </text>
<text text-anchor="start" x="540.6036" y="-268" font-family="monospace" font-size="10.00" fill="#000000">results/philharmonic_clusters.json</text>
<text text-anchor="start" x="540.6036" y="-250" font-family="monospace" font-size="10.00" fill="#000000">results/philharmonic_human_readable.txt</text>
<polygon fill="#c6d957" stroke="#c6d957" points="534.6036,-360 534.6036,-360 818.6036,-360 818.6036,-360 534.6036,-360"/>
<polygon fill="#c6d957" stroke="#c6d957" points="534.6036,-302 534.6036,-302 818.6036,-302 818.6036,-302 534.6036,-302"/>
<polygon fill="none" stroke="#c6d957" stroke-width="2" points="534.1036,-241 534.1036,-389 817.1036,-389 817.1036,-241 534.1036,-241"/>
</g>
<!-- 3&#45;&gt;7 -->
<g id="edge11" class="edge">
<title>3&#45;&gt;7</title>
<path fill="none" stroke="#c0c0c0" stroke-width="2" d="M469.7199,-2189.3978C496.2674,-2174.4314 522.7512,-2156.5776 544.6036,-2136 667.6341,-2020.147 743.6036,-1980.9924 743.6036,-1812 743.6036,-1812 743.6036,-1812 743.6036,-705 743.6036,-588.5106 743.9102,-557.9253 719.6036,-444 716.5347,-429.6159 712.3622,-414.6119 707.8029,-400.1372"/>
<polygon fill="#c0c0c0" stroke="#c0c0c0" stroke-width="2" points="711.0013,-398.6523 704.5935,-390.2148 704.341,-400.8067 711.0013,-398.6523"/>
</g>
<!-- 3&#45;&gt;9 -->
<g id="edge19" class="edge">
<title>3&#45;&gt;9</title>
<path fill="none" stroke="#c0c0c0" stroke-width="2" d="M248.1458,-2171.9305C159.9987,-2093.3691 40.6036,-1959.6974 40.6036,-1812 40.6036,-1812 40.6036,-1812 40.6036,-1059 40.6036,-951.461 65.3405,-920.2258 129.6036,-834 136.9485,-824.145 145.2272,-814.6362 154.0634,-805.5551"/>
<polygon fill="#c0c0c0" stroke="#c0c0c0" stroke-width="2" points="156.6599,-807.9085 161.2621,-798.3654 151.7132,-802.9556 156.6599,-807.9085"/>
</g>
<!-- 3&#45;&gt;12 -->
<g id="edge25" class="edge">
<title>3&#45;&gt;12</title>
<path fill="none" stroke="#c0c0c0" stroke-width="2" d="M211.5136,-2219.1564C162.1081,-2203.0548 109.3385,-2177.2152 74.6036,-2136 -20.4583,-2023.2027 2.6036,-1959.5127 2.6036,-1812 2.6036,-1812 2.6036,-1812 2.6036,-705 2.6036,-577.9215 107.1044,-474.6914 203.657,-406.4335"/>
<polygon fill="#c0c0c0" stroke="#c0c0c0" stroke-width="2" points="205.881,-409.1494 212.0762,-400.5547 201.8734,-403.4101 205.881,-409.1494"/>
</g>
<!-- 4&#45;&gt;2 -->
<g id="edge6" class="edge">
<title>4&#45;&gt;2</title>
<path fill="none" stroke="#c0c0c0" stroke-width="2" d="M456.8397,-1541.9819C440.429,-1530.3027 423.0696,-1517.9484 405.8528,-1505.6956"/>
<polygon fill="#c0c0c0" stroke="#c0c0c0" stroke-width="2" points="407.5939,-1502.6388 397.4171,-1499.6921 403.5351,-1508.342 407.5939,-1502.6388"/>
</g>
<!-- 8 -->
<g id="node9" class="node">
<title>8</title>
<text text-anchor="start" x="426.1036" y="-555.6" font-family="sans" font-weight="bold" font-size="18.00" fill="#000000">add_cluster_functions</text>
<text text-anchor="start" x="399.6036" y="-531.8" font-family="sans" font-size="10.00" fill="#000000"> </text>
<text text-anchor="start" x="403.6036" y="-531.8" font-family="sans" font-weight="bold" font-size="14.00" fill="#000000">↪ input</text>
<text text-anchor="start" x="464.6036" y="-531.8" font-family="sans" font-size="10.00" fill="#000000"> </text>
<text text-anchor="start" x="399.6036" y="-512" font-family="monospace" font-size="10.00" fill="#000000">results/philharmonic_GO_map.csv</text>
<text text-anchor="start" x="399.6036" y="-494" font-family="monospace" font-size="10.00" fill="#000000">results/philharmonic_clusters.recipe.json</text>
<text text-anchor="start" x="589.6036" y="-473.8" font-family="sans" font-size="10.00" fill="#000000"> </text>
<text text-anchor="start" x="593.6036" y="-473.8" font-family="sans" font-weight="bold" font-size="14.00" fill="#000000">output →</text>
<text text-anchor="start" x="666.6036" y="-473.8" font-family="sans" font-size="10.00" fill="#000000"> </text>
<text text-anchor="start" x="399.6036" y="-454" font-family="monospace" font-size="10.00" fill="#000000">results/philharmonic_clusters.functional.json</text>
<polygon fill="#57d957" stroke="#57d957" points="393.6036,-546 393.6036,-546 677.6036,-546 677.6036,-546 393.6036,-546"/>
<polygon fill="#57d957" stroke="#57d957" points="393.6036,-488 393.6036,-488 677.6036,-488 677.6036,-488 393.6036,-488"/>
<polygon fill="none" stroke="#57d957" stroke-width="2" points="393.1036,-445 393.1036,-575 676.1036,-575 676.1036,-445 393.1036,-445"/>
</g>
<!-- 4&#45;&gt;8 -->
<g id="edge13" class="edge">
<title>4&#45;&gt;8</title>
<path fill="none" stroke="#c0c0c0" stroke-width="2" d="M559.1675,-1541.9163C569.5304,-1464.4764 584.6036,-1332.2071 584.6036,-1218 584.6036,-1218 584.6036,-1218 584.6036,-900 584.6036,-790.41 564.9398,-664.8939 550.2753,-586.5259"/>
<polygon fill="#c0c0c0" stroke="#c0c0c0" stroke-width="2" points="553.6311,-585.4357 548.3325,-576.2611 546.7532,-586.7375 553.6311,-585.4357"/>
</g>
<!-- 4&#45;&gt;9 -->
<g id="edge15" class="edge">
<title>4&#45;&gt;9</title>
<path fill="none" stroke="#c0c0c0" stroke-width="2" d="M548.7839,-1541.7555C547.8956,-1464.1644 546.6036,-1331.7534 546.6036,-1218 546.6036,-1218 546.6036,-1218 546.6036,-1059 546.6036,-955.841 549.409,-918.0542 489.6036,-834 478.5426,-818.4541 464.9684,-804.2787 450.1708,-791.4927"/>
<polygon fill="#c0c0c0" stroke="#c0c0c0" stroke-width="2" points="452.2442,-788.664 442.328,-784.9331 447.7533,-794.0335 452.2442,-788.664"/>
</g>
<!-- 4&#45;&gt;12 -->
<g id="edge23" class="edge">
<title>4&#45;&gt;12</title>
<path fill="none" stroke="#c0c0c0" stroke-width="2" d="M594.0982,-1541.8308C640.2076,-1466.7142 705.6036,-1338.8717 705.6036,-1218 705.6036,-1218 705.6036,-1218 705.6036,-705 705.6036,-588.693 762.6277,-532.0207 686.6036,-444 640.4643,-390.5799 597.2134,-430.9433 525.4012,-407.8499"/>
<polygon fill="#c0c0c0" stroke="#c0c0c0" stroke-width="2" points="526.1476,-404.4004 515.5529,-404.3414 523.7984,-410.9945 526.1476,-404.4004"/>
</g>
<!-- 5 -->
<g id="node6" class="node">
<title>5</title>
<text text-anchor="start" x="309.6036" y="-1893.6" font-family="sans" font-weight="bold" font-size="18.00" fill="#000000">annotate_seqs_pfam</text>
<text text-anchor="start" x="306.6036" y="-1869.8" font-family="sans" font-size="10.00" fill="#000000"> </text>
<text text-anchor="start" x="310.6036" y="-1869.8" font-family="sans" font-weight="bold" font-size="14.00" fill="#000000">↪ input</text>
<text text-anchor="start" x="371.6036" y="-1869.8" font-family="sans" font-size="10.00" fill="#000000"> </text>
<text text-anchor="start" x="306.6036" y="-1850" font-family="monospace" font-size="10.00" fill="#000000">results/Pfam&#45;A.hmm</text>
<text text-anchor="start" x="306.6036" y="-1832" font-family="monospace" font-size="10.00" fill="#000000">results/Pfam&#45;A.hmm.h3f</text>
<text text-anchor="start" x="306.6036" y="-1814" font-family="monospace" font-size="10.00" fill="#000000">results/Pfam&#45;A.hmm.h3i</text>
<text text-anchor="start" x="306.6036" y="-1796" font-family="monospace" font-size="10.00" fill="#000000">results/Pfam&#45;A.hmm.h3m</text>
<text text-anchor="start" x="306.6036" y="-1778" font-family="monospace" font-size="10.00" fill="#000000">results/Pfam&#45;A.hmm.h3p</text>
<text text-anchor="start" x="306.6036" y="-1760" font-family="monospace" font-size="10.00" fill="#000000">sample_sequences.fasta</text>
<text text-anchor="start" x="436.6036" y="-1739.8" font-family="sans" font-size="10.00" fill="#000000"> </text>
<text text-anchor="start" x="440.6036" y="-1739.8" font-family="sans" font-weight="bold" font-size="14.00" fill="#000000">output →</text>
<text text-anchor="start" x="513.6036" y="-1739.8" font-family="sans" font-size="10.00" fill="#000000"> </text>
<text text-anchor="start" x="306.6036" y="-1720" font-family="monospace" font-size="10.00" fill="#000000">results/philharmonic_hmmscan.tblout</text>
<polygon fill="#d9c657" stroke="#d9c657" points="300.6036,-1884 300.6036,-1884 524.6036,-1884 524.6036,-1884 300.6036,-1884"/>
<polygon fill="#d9c657" stroke="#d9c657" points="300.6036,-1754 300.6036,-1754 524.6036,-1754 524.6036,-1754 300.6036,-1754"/>
<polygon fill="none" stroke="#d9c657" stroke-width="2" points="300.1036,-1711 300.1036,-1913 523.1036,-1913 523.1036,-1711 300.1036,-1711"/>
</g>
<!-- 5&#45;&gt;4 -->
<g id="edge8" class="edge">
<title>5&#45;&gt;4</title>
<path fill="none" stroke="#c0c0c0" stroke-width="2" d="M480.8058,-1709.7012C487.0233,-1700.51 493.2387,-1691.3221 499.25,-1682.4359"/>
<polygon fill="#c0c0c0" stroke="#c0c0c0" stroke-width="2" points="502.24,-1684.2623 504.9442,-1674.0183 496.442,-1680.3401 502.24,-1684.2623"/>
</g>
<!-- 6&#45;&gt;5 -->
<g id="edge9" class="edge">
<title>6&#45;&gt;5</title>
<path fill="none" stroke="#c0c0c0" stroke-width="2" d="M405.0461,-1949.7093C405.4403,-1941.4303 405.8421,-1932.9931 406.2428,-1924.5766"/>
<polygon fill="#c0c0c0" stroke="#c0c0c0" stroke-width="2" points="409.7509,-1924.4879 406.7307,-1914.3327 402.7589,-1924.1549 409.7509,-1924.4879"/>
</g>
<!-- 7&#45;&gt;0 -->
<g id="edge3" class="edge">
<title>7&#45;&gt;0</title>
<path fill="none" stroke="#c0c0c0" stroke-width="2" d="M569.9747,-239.8409C548.4042,-224.4927 525.3944,-208.1204 502.8563,-192.0837"/>
<polygon fill="#c0c0c0" stroke="#c0c0c0" stroke-width="2" points="504.7548,-189.1389 494.5777,-186.1931 500.6965,-194.8425 504.7548,-189.1389"/>
</g>
<!-- 8&#45;&gt;7 -->
<g id="edge12" class="edge">
<title>8&#45;&gt;7</title>
<path fill="none" stroke="#c0c0c0" stroke-width="2" d="M582.3398,-443.9819C592.9231,-429.3454 604.2731,-413.6486 615.2847,-398.4198"/>
<polygon fill="#c0c0c0" stroke="#c0c0c0" stroke-width="2" points="618.3371,-400.1717 621.3603,-390.0173 612.6646,-396.07 618.3371,-400.1717"/>
</g>
<!-- 8&#45;&gt;12 -->
<g id="edge24" class="edge">
<title>8&#45;&gt;12</title>
<path fill="none" stroke="#c0c0c0" stroke-width="2" d="M476.7108,-443.9819C468.7597,-434.9148 460.4517,-425.4408 452.1055,-415.9232"/>
<polygon fill="#c0c0c0" stroke="#c0c0c0" stroke-width="2" points="454.6347,-413.4989 445.41,-408.2879 449.3717,-418.1142 454.6347,-413.4989"/>
</g>
<!-- 9&#45;&gt;8 -->
<g id="edge14" class="edge">
<title>9&#45;&gt;8</title>
<path fill="none" stroke="#c0c0c0" stroke-width="2" d="M408.8097,-611.7834C420.9041,-601.9975 433.0697,-592.154 444.818,-582.6481"/>
<polygon fill="#c0c0c0" stroke="#c0c0c0" stroke-width="2" points="447.3063,-585.137 452.8787,-576.126 442.9032,-579.6952 447.3063,-585.137"/>
</g>
<!-- 10&#45;&gt;9 -->
<g id="edge17" class="edge">
<title>10&#45;&gt;9</title>
<path fill="none" stroke="#c0c0c0" stroke-width="2" d="M318.7386,-833.9819C317.1116,-825.633 315.4174,-816.9391 313.7113,-808.1838"/>
<polygon fill="#c0c0c0" stroke="#c0c0c0" stroke-width="2" points="317.131,-807.4338 311.7828,-798.2879 310.2603,-808.7728 317.131,-807.4338"/>
</g>
<!-- 11&#45;&gt;9 -->
<g id="edge18" class="edge">
<title>11&#45;&gt;9</title>
<path fill="none" stroke="#c0c0c0" stroke-width="2" d="M197.7513,-1001.7917C187.9544,-991.0483 179.3625,-979.0439 173.6036,-966 149.9091,-912.3312 152.1356,-888.5976 173.6036,-834 177.3358,-824.5083 182.1315,-815.3008 187.6504,-806.4643"/>
<polygon fill="#c0c0c0" stroke="#c0c0c0" stroke-width="2" points="190.5759,-808.3857 193.1522,-798.1088 184.7295,-804.536 190.5759,-808.3857"/>
</g>
<!-- 11&#45;&gt;10 -->
<g id="edge20" class="edge">
<title>11&#45;&gt;10</title>
<path fill="none" stroke="#c0c0c0" stroke-width="2" d="M295.8209,-1001.5974C298.7573,-993.2601 301.8177,-984.5707 304.8584,-975.9375"/>
<polygon fill="#c0c0c0" stroke="#c0c0c0" stroke-width="2" points="308.2545,-976.8307 308.2753,-966.2358 301.652,-974.5052 308.2545,-976.8307"/>
</g>
<!-- 12&#45;&gt;0 -->
<g id="edge1" class="edge">
<title>12&#45;&gt;0</title>
<path fill="none" stroke="#c0c0c0" stroke-width="2" d="M363.6036,-221.8169C363.6036,-213.4655 363.6036,-204.9759 363.6036,-196.5439"/>
<polygon fill="#c0c0c0" stroke="#c0c0c0" stroke-width="2" points="367.1037,-196.3004 363.6036,-186.3005 360.1037,-196.3005 367.1037,-196.3004"/>
</g>
</g>
</svg>
